<svg xmlns="http://www.w3.org/2000/svg" viewBox="0 0 221.1 98"><g id="Layer_2" data-name="Layer 2"><g id="Layer_2-2" data-name="Layer 2"><path d="M12.06,36.72c0,5.94,1.8,13.56,10.26,13.56A14.77,14.77,0,0,0,37.14,35.22c0-6.12-3.9-8-7.2-8a5.1,5.1,0,0,0-5.28,5.4A4.32,4.32,0,0,0,29,37.2c.42,3.66-3,6.42-6.42,6.42-4.26,0-6.66-2.7-6.66-6.12,0-6.54,7.8-10.74,14-10.74,5.4,0,9.54,2.46,9.54,8.46,0,8.46-6.36,15.78-18.6,15.78C6.84,51,0,41.4,0,31.68,0,16,10.92,0,29.34,0,36.48,0,42.9,3.06,42.9,9.12a7.63,7.63,0,0,1-7.38,7.68c-3,0-6.3-2.46-5.4-6.06,2.34-.54,4.14-2,4.14-5A4.88,4.88,0,0,0,29.16.54C19.56.54,12.06,22,12.06,36.72Z"/><path d="M76.5,27.18c0,10-9,18.84-19.68,18.84C48.24,46,42.3,40.38,42.3,32.46c0-10.26,8.82-18.78,19.62-18.78C70.5,13.68,76.5,19.26,76.5,27.18Zm-11-6.78c0-3.54-.78-6.24-3.6-6.24-6.6,0-8.58,19-8.58,25.2,0,3.54.84,6.18,3.6,6.18C63.54,44.7,65.46,27.48,65.46,20.4Z"/><path d="M82.68,17.76c.18-1.2-.78-2.1-2.46-1.56L80,16a25.51,25.51,0,0,1,9.18-2.34c3.42,0,4.8,1.26,4,5.34l-3.3,13.56.24.06c4-15.36,10-19,15.42-19,7.5,0,7,6.18,6.3,10.32l-1.44,8.52c-.9,5.16-1.44,11.88,1.2,12.9l-.18.18a21.76,21.76,0,0,1-4.38.48c-5,0-9.12-2.16-7.92-9.72l2.4-14.88c.42-2.82.42-4.56-1-4.56-3.36,0-7.5,6.9-9.72,15.84-1,4.14-2.7,11.64-.66,12.66l-.18.18a33.61,33.61,0,0,1-5,.48c-4.74,0-6.9-2-5.58-9.42Z"/><path d="M130,14.1h4.2l-.12.6H129.9l-3,18.12c-.84,5.16-1.44,11.88,1.2,12.9l-.18.18a20.8,20.8,0,0,1-2.94.24c-4.62,0-10.5-1.68-9.18-9.48l3.42-22h-2.7l.12-.6c8.64,0,13.32-2.88,14.7-11.4h.54Z"/><path d="M163.74,32.52c-.9,5.16-1.44,11.88,1.2,12.9l-.18.18a20.12,20.12,0,0,1-4.26.42c-5.1,0-9.6-2.16-7.8-9.66l2.22-9.24-.24-.06c-3.78,14.94-8.4,19-13.8,19-6.3,0-8.52-5.58-8.52-11.1,0-9.54,8.58-21.24,19.56-21.24,5.94,0,10.68,5.16,15,.24ZM143.22,38c0,2.46.54,4.74,2.1,4.74,3.66,0,7.62-9.36,9.18-18.18l.66-3.66c.9-4.86.42-6.78-2.52-6.78C147.66,14.16,143.22,28.2,143.22,38Z"/><path d="M188.88,13.68c4.26,0,11.52,1.44,11.52,7.44a6.77,6.77,0,0,1-6.84,6.72c-2.7,0-5.16-1.68-4.74-5.28a4.69,4.69,0,0,0,3.66-4.5,3.79,3.79,0,0,0-4.08-3.9c-5.94,0-8.4,9.6-8.4,14.7,0,7.2,3.84,10.56,8.58,10.56a12.14,12.14,0,0,0,9.3-4.26l.36.18C194,42.48,187.08,46,181,46c-6.66,0-12.3-4.26-12.3-12.72A20,20,0,0,1,188.88,13.68Z"/><path d="M216.9,14.1h4.2l-.12.6h-4.14l-3,18.12C213,38,212.4,44.7,215,45.72l-.18.18a20.8,20.8,0,0,1-2.94.24c-4.62,0-10.5-1.68-9.18-9.48l3.42-22h-2.7l.12-.6c8.64,0,13.32-2.88,14.7-11.4h.54Z"/><path d="M51.23,64.11c1.26-7.92,10-9.6,14.7-9.84v-.06c-7.5,0-14-5.88-21.48-5.88-3.72,0-6.36,1.5-6.36,4.68,0,2.82,2.1,3.78,4,3.78a5.81,5.81,0,0,0,4.56-2.4c7,3.18,2.46,12-4.56,12a8.71,8.71,0,0,1-8.88-8.63c0-5.58,4.62-10,11.1-10,7.62,0,14.88,6,22,6,1.32,0,1.92-.78,1.92-1.5,0-1-1-1.92-2.7-.9a3.19,3.19,0,1,1,6-1.74c0,4.38-6.3,2-8,12.72L61,78.44c-1.2,7.56-2.52,18.72,5.76,18.72,7.5,0,13.26-6.42,14.82-16.08l1.62-9.9c1.32-8.22,2.46-17.39-6.36-17.39l.06-.42H96.05l-.06.42c-9,0-10.86,9.17-12.36,18.54l-1.38,8.75C80.63,91.34,74.81,98,64.37,98c-11.52,0-17.7-4.92-15.72-17.58Z"/><path d="M86.75,89.48a5.64,5.64,0,0,1,5.58-5.76c2.34,0,4.68,1.44,4.32,4.38a4.18,4.18,0,0,0-2.82,4c0,1.92,1.26,3.18,5.58,3.18,2.76,0,9.18-.6,9.18-4.56,0-5.94-18.72-5.64-18.72-15.72,0-8.27,9.24-11.51,16.74-11.51,5,0,11.34,1.13,11.34,5.7a5,5,0,0,1-5,5.15,3.46,3.46,0,0,1-3.66-4A3.64,3.64,0,0,0,111.77,67c0-2-2.34-3.05-5.88-3.05-2.7,0-6.78,1.13-6.78,4.62,0,6,18.42,4.8,18.42,14.87,0,8.7-10.38,12.3-18.48,12.3C93.59,95.78,86.75,94.64,86.75,89.48Z"/></g></g></svg>