<svg xmlns="http://www.w3.org/2000/svg" viewBox="0 0 440.7 373.97"><defs><style>.cls-1{fill:#f7e321;}.cls-2{fill:#ef9e20;}.cls-3{fill:#050404;}.cls-4{fill:#fff;}.cls-5{fill:#f4d627;}.cls-6{fill:#f9df59;}</style></defs><g id="Layer_2" data-name="Layer 2"><g id="Layer_1-2" data-name="Layer 1"><path class="cls-1" d="M369.5,59.53,317.7,114l-79-16.79A121.88,121.88,0,0,1,265,172.73C265,242.48,205.68,299,132.5,299c-3.23,0-6.43-.12-9.61-.34l5,2.44c-.79.19-8.3-1.41-15.7-3.09,3.27,17.36,23.08,86,130.6,74.69,0,0,33.19-2.46,53.46-8.36,4.93-2.23,7.74-3.66,7.74-3.64C511.5,274.43,421.1,9.53,421.1,9.53c-2.1-14.4-26.7-8.2-26.7-8.2L377.24,13.38c10.61-2.52,17.16-3.85,17.16-3.85Zm38.7,11.9-8.3-53.6s3.7-13.9,13.9-3.7c0,0,81.3,197.8-64.7,317,0,0-98,69.3-192.2,24,0,0-37.9-25.9-31.5-35.1,0,0,121.1,54.5,207.9-37.9,0,0,56.17-53,73.28-130.88A34.39,34.39,0,0,0,395,167.13s-41.9,90.6-89.3,100.4c0,0-26.5,11.7-14.2-8.6l2.4.6s62.8-30.8,91.2-93.7c0,0,12.9-30.8,22.8-32l1.71.43A197.39,197.39,0,0,0,408.2,71.43Z"/><path class="cls-1" d="M111.43,293.12c-.05-.74-.09-1.51-.13-2.28a117.45,117.45,0,0,1-12.7-4.11,87.85,87.85,0,0,0,12.57,1.12,239.48,239.48,0,0,1,6.68-66.91c-.61.05-1.23.09-1.85.09-10.77,0-19.5-8.29-19.5-18.5S105.23,184,116,184a20,20,0,0,1,12.87,4.62,185.29,185.29,0,0,1,53.93-70.32s14.49-10.88,37.76-25l-7.26-1.54a39.4,39.4,0,0,1,8-12.81A135.66,135.66,0,0,0,132.5,46.43C59.32,46.43,0,103,0,172.73c0,32.51,12.89,62.15,34.06,84.54l2.34-10.14L59,236.83s34.9,10.3,39,26.7a124.6,124.6,0,0,1-12.59,27.28c3.87,1.4,7.82,2.64,11.85,3.69l12.94-2Z"/><path class="cls-1" d="M132.5,299c73.18,0,132.5-56.55,132.5-126.3a121.88,121.88,0,0,0-26.27-75.49l-18.17-3.87c-23.27,14.08-37.76,25-37.76,25a185.29,185.29,0,0,0-53.93,70.32,18,18,0,0,1,6.63,13.88c0,9.62-7.75,17.52-17.65,18.41a239.48,239.48,0,0,0-6.68,66.91c17.09.47,48.88-2.35,78-25.12,0,0,72.1-36,41.6-138.6,0,0,53.6,73-25.9,146.9,0,0-38.34,34.34-93.6,19.81,0,.77.08,1.54.13,2.28l11.46,5.57C126.07,298.91,129.27,299,132.5,299Z"/><path class="cls-2" d="M34.06,257.27l-10,43.26c6.2,18.5,37,12.3,36.9,12.3,10.29-3.42,18.42-12.54,24.41-22A133.22,133.22,0,0,1,34.06,257.27Z"/><path class="cls-2" d="M59,236.83l-22.6,10.3-2.34,10.14a133.22,133.22,0,0,0,51.35,33.54A124.6,124.6,0,0,0,98,263.53C93.9,247.13,59,236.83,59,236.83Z"/><path class="cls-3" d="M117.1,208.63c-4.53,0-8.2-4.12-8.2-9.2s3.67-9.2,8.2-9.2c4,0,7.34,3.22,8.05,7.49q1.72-4.53,3.72-9.07A20,20,0,0,0,116,184c-10.77,0-19.5,8.28-19.5,18.5S105.23,221,116,221c.62,0,1.24,0,1.85-.09q1.75-7,4.07-14.08A7.57,7.57,0,0,1,117.1,208.63Z"/><path class="cls-3" d="M135.5,202.53a18,18,0,0,0-6.63-13.88q-2,4.54-3.72,9.07a9.85,9.85,0,0,1-3.23,9.14q-2.33,7.09-4.07,14.08C127.75,220.05,135.5,212.15,135.5,202.53Z"/><path class="cls-4" d="M117.1,190.23c-4.53,0-8.2,4.12-8.2,9.2s3.67,9.2,8.2,9.2a7.57,7.57,0,0,0,4.82-1.77q1.48-4.56,3.23-9.14C124.44,193.45,121.11,190.23,117.1,190.23Z"/><path class="cls-4" d="M125.3,199.43a9.54,9.54,0,0,0-.15-1.71q-1.74,4.58-3.23,9.14A9.57,9.57,0,0,0,125.3,199.43Z"/><path class="cls-1" d="M230.35,87.58c28.72-16.65,67.6-36,108.55-47.25l38.34-26.95c-37.67,9-126.62,32.94-155.91,65.64Q226.05,83.09,230.35,87.58Z"/><path class="cls-1" d="M230.35,87.58a123.89,123.89,0,0,1,8.38,9.66l79,16.79,51.8-54.5,24.9-50s-6.55,1.33-17.16,3.85L338.9,40.33C298,51.53,259.07,70.93,230.35,87.58Z"/><path class="cls-1" d="M220.56,93.37c3.12-1.88,6.38-3.82,9.79-5.79q-4.29-4.48-9-8.56a39.4,39.4,0,0,0-8,12.81Z"/><path class="cls-1" d="M230.35,87.58c-3.41,2-6.67,3.91-9.79,5.79l18.17,3.87A123.89,123.89,0,0,0,230.35,87.58Z"/><path class="cls-4" d="M303.55,361.83a30.2,30.2,0,0,0,3.95-2Z"/><path class="cls-5" d="M417.8,136.33s4.3,7.4-3.1,9.9a39.13,39.13,0,0,0-8.12,5c-17.11,77.87-73.28,130.88-73.28,130.88C246.5,374.53,125.4,320,125.4,320c-6.4,9.2,31.5,35.1,31.5,35.1,94.2,45.3,192.2-24,192.2-24,146-119.2,64.7-317,64.7-317-10.2-10.2-13.9,3.7-13.9,3.7l8.3,53.6a197.39,197.39,0,0,1,1.41,62.83Zm10.4,23.5-2.5,19.7-7.4-1.2,1.9-17.3S423.3,148.13,428.2,159.83Z"/><path class="cls-5" d="M98.6,286.73a117.45,117.45,0,0,0,12.7,4.11c0-1-.09-2-.13-3A87.85,87.85,0,0,1,98.6,286.73Z"/><path class="cls-5" d="M204.9,271c79.5-73.9,25.9-146.9,25.9-146.9,30.5,102.6-41.6,138.6-41.6,138.6-29.15,22.77-60.94,25.59-78,25.12,0,1,.08,2,.13,3C166.56,305.37,204.9,271,204.9,271Z"/><path class="cls-6" d="M407.9,133.83c-9.9,1.2-22.8,32-22.8,32-28.4,62.9-91.2,93.7-91.2,93.7l-2.4-.6c-12.3,20.3,14.2,8.6,14.2,8.6,47.4-9.8,89.3-100.4,89.3-100.4a34.39,34.39,0,0,1,11.58-15.88q1.83-8.31,3-17Z"/><path class="cls-6" d="M417.8,136.33l-8.19-2.07q-1.19,8.67-3,17a39.13,39.13,0,0,1,8.12-5C422.1,143.73,417.8,136.33,417.8,136.33Z"/><path class="cls-6" d="M425.7,179.53l2.5-19.7c-4.9-11.7-8,1.2-8,1.2l-1.9,17.3Z"/><path class="cls-1" d="M97.26,294.5l-.16,0s5,1.19,10.93,2.56l.22-.18Q102.67,295.92,97.26,294.5Z"/><path class="cls-1" d="M112.2,298c7.4,1.68,14.91,3.28,15.7,3.09l-5-2.44c-3.63-.24-7.23-.63-10.78-1.15Z"/><path class="cls-1" d="M111.5,294.21c0-.36,0-.72-.07-1.09l-1.23-.59-12.94,2q5.4,1.42,11,2.41Z"/><path class="cls-1" d="M112.11,297.54c3.55.52,7.15.91,10.78,1.15l-11.46-5.57c0,.37,0,.73.07,1.09l.1-.08S111.72,295.37,112.11,297.54Z"/><path class="cls-1" d="M111.73,297.48q-1.76-.27-3.48-.57l-.22.18,3.73.86Z"/><path class="cls-1" d="M112.11,297.54l-.38-.06,0,.47.44.09Z"/><path class="cls-1" d="M108.25,296.91q1.73.3,3.48.57c-.08-1.06-.16-2.15-.23-3.27Z"/><path class="cls-1" d="M111.6,294.13l-.1.08c.07,1.12.15,2.21.23,3.27l.38.06C111.72,295.37,111.6,294.13,111.6,294.13Z"/></g></g></svg>