<?xml version="1.0" encoding="UTF-8"?>
<svg width="114px" height="124px" viewBox="0 0 114 124" version="1.1" xmlns="http://www.w3.org/2000/svg" xmlns:xlink="http://www.w3.org/1999/xlink">
    <!-- Generator: Sketch 64 (93537) - https://sketch.com -->
    <title>Group 2</title>
    <desc>Created with Sketch.</desc>
    <g id="CN" stroke="none" stroke-width="1" fill="none" fill-rule="evenodd">
        <g id="全部订单为空时" transform="translate(-142.000000, -106.000000)">
            <g id="Group-2" transform="translate(142.000000, 106.000000)">
                <g id="Group" transform="translate(0.000000, 38.000000)">
                    <rect id="Rectangle-10" fill="#FFFFFF" x="4" y="20" width="62" height="63"></rect>
                    <rect id="Rectangle-9" fill="#FFCB00" x="25" y="9" width="64" height="59" rx="4"></rect>
                    <rect id="Rectangle" fill="#FFFFFF" x="31" y="15" width="7" height="7" rx="3.5"></rect>
                    <rect id="Rectangle-Copy" fill="#FFFFFF" x="41" y="17" width="27" height="3" rx="1.5"></rect>
                    <rect id="Rectangle-Copy-3" fill="#FFFFFF" x="31" y="26" width="7" height="7" rx="3.5"></rect>
                    <rect id="Rectangle-Copy-2" fill="#FFFFFF" x="41" y="28" width="27" height="3" rx="1.5"></rect>
                    <rect id="Rectangle-11" fill="#E7B200" x="31" y="60" width="49" height="9" rx="2"></rect>
                    <rect id="Rectangle-Copy-5" fill="#FFFFFF" x="31" y="38" width="7" height="7" rx="3.5"></rect>
                    <rect id="Rectangle-Copy-4" fill="#FFFFFF" x="41" y="40" width="27" height="3" rx="1.5"></rect>
                    <path d="M60,82 L10,82 C7.63977414,81.9619345 3.96726181,79.469834 4,77 L4,69.7811327 C4,67.9604032 2.70890307,66.6529248 2.70890307,64.8321953 C2.70890307,63.3896077 4,61.433769 4,59.9911814 L4,24 C3.96726181,21.6121528 6.39073671,20.1158791 9,20 L11,20 C12.7171911,20.1158791 13.8742733,20.4632283 14,18 C13.8742733,16.2896944 12.797544,16 11,16 L9,16 C2.04096454,16 0,17.20349 0,24 L0,59.8416305 C0,61.5048862 1.06213772,63.2894879 1.06213772,64.9527435 C1.06213772,66.6348779 0,68.1956663 0,69.8778006 L0,77 C0,83.5418367 2.43737233,86 9,86 L60,86 C66.7679313,85.711433 68.3160645,84.2953172 69,77 C68.6417847,76.7626468 67.8634644,76.3324585 67.0679932,76.3324585 C66.272522,76.3324585 65.1556702,76.5428146 65,77 C64.567552,79.5767109 62.5943724,81.9619345 60,82 Z" id="Shape" fill="#4C3A30"></path>
                    <path d="M7,63 C5.8954305,63 5,63.8954305 5,65 C5,66.1045695 5.8954305,67 7,67 L-3,67 C-1.8954305,67 -1,66.1045695 -1,65 C-1,63.8954305 -1.8954305,63 -3,63 L7,63 L7,63 Z" id="Combined-Shape-Copy-2" fill="#FFFFFF" transform="translate(2.000000, 65.000000) rotate(90.000000) translate(-2.000000, -65.000000) "></path>
                    <path d="M43.5029768,6.97400555 L59.8186064,6.97400555 C62.2935999,6.97400555 64.3981497,6.90958056 64.3981497,4.10172461 C64.3981497,1.24554991 62.2935999,0.0214749971 59.7273377,0.0214749971 L43.5029768,0.0214749971 C40.9259771,0.0214749971 38.8321648,1.25091866 38.8321648,4.10172461 C38.8321648,6.95253055 40.9259771,6.97400555 43.5029768,6.97400555 L43.5029768,6.97400555 L43.5029768,6.97400555 L43.5029768,6.97400555 Z M77.3803906,1.00000512 L72.6797656,1.00000512 C70.8092187,1.00000512 69.0029869,1.3087732 69.0029869,3.2674675 C69.0029869,5.1191294 70.7067953,5.00295435 72.6797641,5.00295435 L77.3803925,5.00295435 C79.5689862,5.00295435 82.0507773,7.53433828 82.0507773,9.70709761 L82.0507773,53.3296259 C82.0507773,54.8507553 83.3836136,56.4151347 83.3836136,57.936264 C83.3836136,59.4840173 82.0507773,60.9885206 82.0507773,62.5362739 L82.0507773,63.3999386 C82.0507773,65.5834011 79.5689862,67.5204426 77.3803925,67.5204426 L26.9033898,67.5204426 C24.6393273,67.5204426 20.9315584,65.4656654 20.9315584,63.3999386 L20.9315584,43.5466303 C20.9315584,42.0484602 19.6005826,40.5160572 19.6005826,39.0178871 C19.6005826,37.5083065 20.9315584,36.0329588 20.9315584,34.5233781 L20.9315584,28.4338368 C20.9315584,26.9404744 19.6005826,25.3405723 19.6005826,23.8472099 C19.6005826,22.2786538 20.9315584,20.8166375 20.9315584,19.2480814 L20.9315584,9.9565226 C20.9315584,7.78376327 23.4364059,5.00295435 25.619609,5.00295435 L31.5115629,5.00295435 C33.2419535,5.00295435 34.0692683,5.00295434 34.0692683,2.99053866 C34.0692683,0.978122988 33.3228125,1.00000504 31.5115625,1.00000504 L25.6196094,1.00000512 C19.0538281,1.00000512 17,3.10854496 17,9.70174568 L17,19.4230848 C17,20.897793 18.3203655,22.3725018 18.3203655,23.8472099 C18.3203655,25.4723056 17,27.0974006 17,28.7224962 L17,34.3037585 C17,35.6252585 18.5769089,37.1348408 18.5769089,38.4563408 C18.5769089,40.2800301 17,41.9156371 17,43.7393264 L17,62.9022393 C17,69.5329014 19.4473437,72 26.1209375,72 L76.8844531,72 C83.9623437,72 86,69.9289215 86,62.9022393 C86,62.9022393 84.5175781,59.748433 84.5175781,57.936264 C84.5175781,56.4927419 86,54.5786881 86,53.135166 C86,38.659143 86,9.70709722 86,9.70709722 C86,7.15437261 85.8598438,5.49001753 84.5175781,4.06113399 C83.0405468,2.47705328 80.6147656,1.00000512 77.3803906,1.00000512 Z" id="Shape" fill="#4C3A30"></path>
                    <path d="M24,22 C22.8954305,22 22,22.8954305 22,24 C22,25.1045695 22.8954305,26 24,26 L14,26 C15.1045695,26 16,25.1045695 16,24 C16,22.8954305 15.1045695,22 14,22 L24,22 L24,22 Z" id="Combined-Shape-Copy-3" fill="#FFFFFF" transform="translate(19.000000, 24.000000) rotate(90.000000) translate(-19.000000, -24.000000) "></path>
                    <path d="M89,56 C87.8954305,56 87,56.8954305 87,58 C87,59.1045695 87.8954305,60 89,60 L79,60 C80.1045695,60 81,59.1045695 81,58 C81,56.8954305 80.1045695,56 79,56 L89,56 L89,56 Z" id="Combined-Shape-Copy-5" fill="#FFCB00" transform="translate(84.000000, 58.000000) rotate(90.000000) translate(-84.000000, -58.000000) "></path>
                    <path d="M24,37 C22.8954305,37 22,37.8954305 22,39 C22,40.1045695 22.8954305,41 24,41 L14,41 C15.1045695,41 16,40.1045695 16,39 C16,37.8954305 15.1045695,37 14,37 L24,37 L24,37 Z" id="Combined-Shape-Copy-4" fill="#FFFFFF" transform="translate(19.000000, 39.000000) rotate(90.000000) translate(-19.000000, -39.000000) "></path>
                </g>
                <path d="M58.7875712,13.4058622 C59.0357663,13.2848094 59.6785655,14.0920852 60.2233033,15.2089632 C60.7680411,16.3258413 61.0084365,17.3293826 60.7602413,17.4504354 C60.5120462,17.5714883 59.8692471,16.7642124 59.3245092,15.6473344 C58.7797714,14.5304563 58.5393761,13.5269151 58.7875712,13.4058622 Z M57.8950619,13.3941763 L57.939997,13.4058622 C58.1881922,13.5269151 57.9477968,14.5304563 57.403059,15.6473344 C56.8583212,16.7642124 56.215522,17.5714883 55.9673269,17.4504354 C55.7191317,17.3293826 55.9595271,16.3258413 56.5042649,15.2089632 C57.0490028,14.0920852 57.6918019,13.2848094 57.939997,13.4058622 Z M59.3399672,12.7170532 C59.4020857,12.4479883 60.4339835,12.4564747 61.6447753,12.736008 C62.8555672,13.0155413 63.786751,13.460268 63.7246325,13.7293329 C63.6625139,13.9983978 62.6306162,13.9899114 61.4198243,13.7103781 C60.2090324,13.4308447 59.2778487,12.986118 59.3399672,12.7170532 Z M55.0827929,12.736008 C56.2935847,12.4564747 57.3254825,12.4479883 57.387601,12.7170532 C57.4497196,12.986118 56.5185358,13.4308447 55.3077439,13.7103781 C54.096952,13.9899114 53.0650543,13.9983978 53.0029357,13.7293329 C52.9408172,13.460268 53.872001,13.0155413 55.0827929,12.736008 Z M60.5900762,10.0850852 C61.5557894,9.30306604 62.4795328,8.84308433 62.6533148,9.05768726 C62.8270969,9.2722902 62.1851098,10.080212 61.2193966,10.8622311 C60.2536834,11.6442502 59.32994,12.104232 59.156158,11.889629 C58.982376,11.6750261 59.624363,10.8671043 60.5900762,10.0850852 Z M54.0742534,9.05768726 C54.2480354,8.84308433 55.1717788,9.30306604 56.137492,10.0850852 C57.1032052,10.8671043 57.7451922,11.6750261 57.5714102,11.889629 C57.3976282,12.104232 56.4738848,11.6442502 55.5081716,10.8622311 C54.5424584,10.080212 53.9004713,9.2722902 54.0742534,9.05768726 Z M58.3637841,7 C58.6399265,7 58.8637841,8.00735931 58.8637841,9.25 C58.8637841,10.4926407 58.6399265,11.5 58.3637841,11.5 C58.0876417,11.5 57.8637841,10.4926407 57.8637841,9.25 C57.8637841,8.00735931 58.0876417,7 58.3637841,7 Z" id="Oval-3" fill="#FF8500"></path>
                <path d="M99.75,39.375 C99.75,35.8541847 96.8958153,33 93.375,33 C89.8541847,33 87,35.8541847 87,39.375 C87,42.8958153 89.8541847,45.75 93.375,45.75 C96.8958153,45.75 99.75,42.8958153 99.75,39.375 Z M88.8214286,39.375 C88.8214286,36.8601319 90.8601319,34.8214286 93.375,34.8214286 C95.8898681,34.8214286 97.9285714,36.8601319 97.9285714,39.375 C97.9285714,41.8898681 95.8898681,43.9285714 93.375,43.9285714 C90.8601319,43.9285714 88.8214286,41.8898681 88.8214286,39.375 Z" id="Oval-4" fill="#16D121" fill-rule="nonzero"></path>
                <path d="M87,3.5 C87,1.56700338 85.4329966,0 83.5,0 C81.5670034,0 80,1.56700338 80,3.5 C80,5.43299662 81.5670034,7 83.5,7 C85.4329966,7 87,5.43299662 87,3.5 Z M81,3.5 C81,2.11928813 82.1192881,1 83.5,1 C84.8807119,1 86,2.11928813 86,3.5 C86,4.88071187 84.8807119,6 83.5,6 C82.1192881,6 81,4.88071187 81,3.5 Z" id="Oval-4-Copy" fill="#16D1C4" fill-rule="nonzero"></path>
                <path d="M109.802838,60.046983 C110.230523,60.046983 110.577231,60.3998465 110.577231,60.8178122 L110.576871,63.143983 L112.903975,63.1445563 C113.294216,63.1445563 113.616726,63.4333816 113.667768,63.8132427 L113.674804,63.9189497 C113.674804,64.3466353 113.321941,64.693343 112.903975,64.693343 L110.576871,64.692983 L110.577231,67.0200871 C110.577231,67.4103279 110.288406,67.7328379 109.908545,67.7838796 L109.802838,67.7909163 C109.375152,67.7909163 109.028444,67.4380528 109.028444,67.0200871 L109.027871,64.692983 L106.7017,64.693343 C106.275983,64.693343 105.930871,64.349617 105.930871,63.9189497 C105.930871,63.491264 106.283734,63.1445563 106.7017,63.1445563 L109.027871,63.143983 L109.028444,60.8178122 C109.028444,60.392095 109.37217,60.046983 109.802838,60.046983 Z" id="Combined-Shape" fill="#FF8500"></path>
                <path d="M17.6555703,22 C18.0920839,22 18.445948,22.3564407 18.445948,22.7830888 L18.445,25.559 L20.2300722,23.4324569 C20.4849036,23.1287606 20.921326,23.0672597 21.2516536,23.2767476 L21.3388963,23.340621 C21.6732851,23.6212065 21.7152451,24.1217154 21.441001,24.4485468 L19.656,26.574 L22.3903136,26.0928045 C22.780738,26.0239622 23.154589,26.2573767 23.2729784,26.6301842 L23.2987532,26.7351926 C23.374553,27.1650746 23.0849752,27.575458 22.6648089,27.6495446 L19.931,28.131 L22.3351161,29.5193255 C22.6784496,29.7175492 22.8148001,30.1366619 22.6658555,30.4983482 L22.618102,30.5953571 C22.3998453,30.9733889 21.9142265,31.1016238 21.5447384,30.8882998 L19.141,29.5 L20.0903071,32.1087126 C20.2259001,32.4812512 20.0609502,32.8899546 19.7143645,33.0712827 L19.6154272,33.1149004 C19.2052386,33.2641969 18.7508052,33.0502808 18.604883,32.6493628 L17.655,30.041 L16.7062577,32.6493628 C16.5706647,33.0219014 16.1815963,33.2289586 15.7995409,33.1450831 L15.6957135,33.1149004 C15.2855249,32.965604 15.0749113,32.5096307 15.2208336,32.1087126 L16.17,29.5 L13.7664022,30.8882998 C13.4230688,31.0865235 12.9919313,30.9950501 12.753174,30.6852172 L12.6930386,30.5953571 C12.4747818,30.2173253 12.6065365,29.7326496 12.9760246,29.5193255 L15.379,28.131 L12.6463317,27.6495446 C12.2559073,27.5807023 11.9844348,27.2334998 12.0006928,26.8426838 L12.0123875,26.7351926 C12.0881873,26.3053107 12.5006607,26.0187179 12.920827,26.0928045 L15.654,26.574 L13.8701397,24.4485468 C13.6174143,24.1473604 13.6302926,23.71165 13.8877055,23.4226414 L13.9722443,23.340621 C14.3066331,23.0600355 14.8068244,23.1056255 15.0810685,23.4324569 L16.865,25.559 L16.8651927,22.7830888 C16.8651927,22.3866415 17.1599796,22.0590021 17.5476815,22.0071487 L17.6555703,22 Z M17.105053,26.8913872 L17.0205141,26.9734075 C16.9093327,27.0666998 16.7798216,27.1239332 16.6463806,27.1467594 C16.6818841,27.241962 16.6987213,27.3449637 16.6943024,27.4511873 L16.6826078,27.5586785 C16.6636578,27.666149 16.6236658,27.7646639 16.5677719,27.8508265 L16.507235,27.9310362 C16.5952855,27.9816058 16.6747104,28.049864 16.739826,28.1343639 L16.7999614,28.2242241 C16.8725354,28.3499258 16.9064095,28.4874189 16.9057119,28.6228061 C17.0056055,28.6043431 17.1099802,28.6056451 17.2138366,28.6284455 L17.317664,28.6586281 C17.4534696,28.7080573 17.567399,28.7911028 17.6537556,28.8946369 C17.7197428,28.8174586 17.8004476,28.7514732 17.8945393,28.7022458 L17.9934767,28.6586281 C18.1295359,28.6091066 18.2704632,28.5995473 18.4033847,28.6235195 C18.4035306,28.5221152 18.4229373,28.4195523 18.4634257,28.3212329 L18.5111792,28.2242241 C18.5835035,28.0989547 18.6851863,28.001115 18.8022732,27.9340439 C18.7374683,27.8559259 18.6864644,27.7649484 18.6543077,27.6636869 L18.6285329,27.5586785 C18.6095829,27.451208 18.6134691,27.3449562 18.6365228,27.244873 L18.6659755,27.1487957 C18.5659393,27.1313909 18.4679586,27.094414 18.3778693,27.0372809 L18.2906265,26.9734075 C18.1795533,26.8802061 18.1007454,26.7627392 18.0550741,26.6354325 C17.9688061,26.6860452 17.8696157,26.7209193 17.7634592,26.7351173 L17.6555703,26.742266 C17.5100658,26.742266 17.3737446,26.7026614 17.2566516,26.6340536 L17.229988,26.7026276 C17.1982367,26.7699157 17.1565355,26.8335855 17.105053,26.8913872 Z" id="Rectangle-6" fill="#DEA1F8"></path>
            </g>
        </g>
    </g>
</svg>